<?xml version="1.0" standalone="no"?>
<!DOCTYPE svg PUBLIC "-//W3C//DTD SVG 20010904//EN"
 "http://www.w3.org/TR/2001/REC-SVG-20010904/DTD/svg10.dtd">
<svg version="1.0" xmlns="http://www.w3.org/2000/svg"
 width="225.000000pt" height="225.000000pt" viewBox="0 0 225.000000 225.000000"
 preserveAspectRatio="xMidYMid meet">
<metadata>
Created by potrace 1.14, written by Peter Selinger 2001-2017
</metadata>
<g transform="translate(0.000000,225.000000) scale(0.100000,-0.100000)"
fill="#000000" stroke="none">
<path d="M1170 2204 c0 -5 -36 -8 -80 -8 -44 1 -80 -2 -80 -6 0 -4 -12 -8 -27
-8 -38 0 -76 -12 -124 -38 -14 -7 -29 -11 -33 -7 -3 3 -6 2 -6 -4 0 -6 -13
-16 -30 -23 -16 -7 -30 -17 -30 -22 0 -5 -4 -6 -10 -3 -5 3 -10 -1 -10 -9 0
-9 -4 -16 -8 -16 -12 0 -82 -68 -82 -80 0 -5 -8 -14 -17 -19 -19 -10 -59 -71
-47 -71 4 0 0 -6 -10 -13 -9 -7 -18 -22 -19 -35 0 -12 -5 -22 -9 -22 -4 0 -7
-3 -6 -7 1 -5 -2 -17 -8 -28 -6 -11 -10 -27 -9 -35 1 -8 -3 -23 -7 -33 -5 -10
-11 -47 -13 -83 -3 -36 -7 -70 -10 -75 -4 -5 -1 -9 6 -9 8 0 9 -3 0 -13 -6 -8
-8 -17 -5 -20 8 -8 9 -101 0 -115 -3 -6 -2 -13 4 -17 14 -9 -1 -33 -36 -56
-16 -10 -25 -19 -21 -19 5 0 -5 -12 -22 -26 -17 -14 -29 -30 -25 -35 3 -5 0
-9 -6 -9 -14 0 -43 -68 -36 -86 3 -8 1 -14 -5 -14 -6 0 -9 -6 -6 -14 3 -8 1
-17 -6 -20 -9 -3 -8 -5 1 -5 10 -1 10 -6 2 -21 -8 -15 -8 -20 1 -20 7 0 9 -3
6 -7 -4 -3 -2 -12 4 -20 8 -9 8 -13 0 -13 -16 0 21 -69 41 -75 9 -3 19 -14 21
-23 4 -16 5 -16 6 0 0 9 -5 23 -11 30 -7 7 -15 20 -17 28 -7 31 -1 103 10 116
6 7 8 18 4 24 -3 5 1 10 10 10 9 0 14 3 12 8 -5 9 30 42 37 34 3 -3 6 0 6 6 0
6 18 21 40 32 l40 21 12 -25 c6 -14 15 -23 19 -20 5 3 9 -4 9 -15 0 -12 5 -21
10 -21 6 0 10 -7 10 -16 0 -8 4 -13 8 -10 4 2 13 -4 20 -14 7 -12 8 -21 2 -25
-6 -3 -10 -13 -10 -21 0 -8 -9 -24 -20 -36 -11 -12 -20 -32 -20 -44 0 -12 -7
-27 -15 -34 -9 -7 -14 -19 -11 -26 3 -7 1 -16 -5 -19 -5 -4 -7 -11 -4 -16 4
-5 3 -9 -2 -9 -4 0 -8 -27 -8 -60 0 -33 4 -60 8 -60 5 0 5 -5 2 -10 -4 -6 -1
-18 7 -27 8 -11 8 -14 1 -10 -6 4 3 -15 20 -42 18 -27 35 -47 40 -44 4 2 10
-2 13 -10 2 -7 11 -14 20 -14 11 0 10 5 -6 22 -11 12 -17 25 -13 28 3 4 1 7
-6 7 -7 0 -9 4 -6 10 3 5 1 10 -4 10 -6 0 -11 9 -11 20 0 11 -5 20 -10 20 -7
0 -8 6 -1 17 6 11 6 24 0 35 -5 10 -5 19 0 22 5 4 19 27 31 52 25 51 215 248
230 239 6 -4 7 2 3 12 -3 10 -3 15 2 11 4 -4 14 -3 22 3 9 9 13 8 13 0 0 -6
-4 -11 -8 -11 -4 0 -9 -9 -10 -20 -4 -42 -6 -50 -11 -50 -8 0 -35 -88 -30 -93
2 -2 -4 -12 -14 -22 -10 -10 -16 -26 -14 -36 3 -11 2 -19 -3 -19 -6 0 -44 -84
-45 -102 0 -3 -3 -10 -7 -14 -5 -4 -8 -16 -8 -26 0 -10 -4 -18 -10 -18 -5 0
-8 -10 -6 -22 2 -13 -3 -31 -12 -40 -10 -12 -11 -18 -3 -18 8 0 9 -5 2 -17 -7
-15 -9 -148 -2 -148 2 0 5 -11 7 -25 3 -14 9 -27 14 -28 6 -2 8 -8 4 -13 -3
-5 -1 -9 5 -9 5 0 13 -10 17 -22 7 -22 7 -22 14 -3 5 13 3 24 -8 33 -11 8 -12
12 -3 12 10 0 11 3 2 13 -6 8 -8 17 -4 20 3 4 1 7 -7 7 -9 0 -10 4 -2 13 6 7
7 18 2 27 -5 8 -2 22 7 37 11 16 12 23 3 23 -7 0 -6 6 4 16 9 8 14 20 11 25
-4 5 -1 9 5 9 6 0 9 4 6 8 -3 5 4 19 15 31 11 12 18 25 15 30 -3 5 1 12 10 15
8 3 13 10 10 15 -3 5 1 12 10 15 8 3 12 10 9 16 -3 5 -2 10 3 10 5 0 17 12 27
26 12 18 13 24 4 19 -8 -3 -6 0 4 8 9 8 17 19 17 26 0 6 5 11 11 11 5 0 8 4 4
9 -3 5 2 16 10 25 9 8 15 18 15 21 -3 15 8 14 21 -2 8 -9 9 -14 2 -10 -6 4 -2
-12 9 -35 12 -24 21 -49 21 -55 0 -7 4 -13 9 -13 4 0 8 -11 8 -24 0 -14 5 -28
11 -32 6 -3 9 -17 6 -30 -2 -13 0 -24 6 -24 5 0 4 -7 -3 -15 -7 -8 -8 -15 -3
-15 11 0 6 -89 -6 -104 -11 -14 -36 -89 -33 -99 1 -4 -5 -10 -13 -13 -8 -3
-13 -10 -10 -14 3 -5 -2 -16 -11 -24 -8 -9 -12 -16 -7 -16 4 0 4 -4 -2 -8 -20
-15 -68 -105 -68 -129 0 -7 -4 -13 -8 -13 -4 0 -5 -10 -1 -22 4 -15 2 -19 -7
-13 -10 6 -11 3 -2 -14 9 -16 9 -21 0 -21 -8 0 -8 -4 1 -15 7 -8 8 -15 3 -15
-6 0 -10 -14 -9 -30 1 -17 5 -30 9 -30 4 0 10 0 13 0 4 0 1 7 -6 15 -9 11 -9
15 -1 15 7 0 9 5 5 11 -3 6 -2 14 4 18 7 4 13 16 15 27 3 20 17 42 50 72 9 9
17 22 17 30 0 7 3 11 8 9 9 -6 33 19 25 27 -4 3 1 6 10 6 9 0 21 8 26 18 6 9
11 13 11 9 0 -4 22 15 50 43 27 28 49 53 49 57 0 3 6 10 15 15 9 5 14 13 11
19 -4 5 -2 9 4 9 5 0 12 8 16 19 3 10 14 29 25 41 11 12 17 27 14 31 -3 5 -1
9 5 9 12 0 33 69 25 82 -3 4 0 8 6 8 7 0 10 7 6 15 -3 8 -1 15 5 15 6 0 9 7 5
15 -3 8 -2 15 2 15 4 0 8 21 10 46 3 67 11 71 39 23 13 -23 31 -48 40 -54 9
-7 13 -17 9 -23 -4 -7 -2 -12 3 -12 6 0 11 -7 11 -15 0 -8 5 -15 11 -15 5 0 7
-4 4 -10 -3 -5 -1 -10 5 -10 6 0 9 -4 6 -9 -3 -5 1 -14 9 -21 8 -7 15 -21 15
-31 0 -9 7 -25 16 -33 12 -12 12 -16 2 -16 -10 0 -9 -3 2 -10 8 -5 12 -10 8
-10 -3 0 -3 -12 1 -27 8 -30 -7 -63 -43 -96 -10 -9 -16 -20 -13 -24 4 -3 18 6
31 20 13 14 26 24 29 21 7 -8 38 46 32 56 -3 6 -3 10 2 10 12 0 4 144 -8 148
-6 3 -6 8 1 17 7 9 6 16 -4 24 -8 6 -12 20 -9 30 3 10 0 22 -6 25 -6 4 -11 16
-11 27 0 10 -5 19 -12 19 -6 0 -9 3 -5 6 3 4 -3 24 -14 45 -11 22 -31 72 -45
112 -14 39 -28 79 -31 87 -4 8 -7 17 -7 20 -1 3 -5 11 -10 19 -7 11 -6 12 5 6
8 -5 5 2 -6 15 -11 13 -14 20 -6 15 11 -6 10 -2 -2 16 -24 33 -21 40 8 27 14
-6 25 -16 25 -23 0 -6 18 -24 40 -41 22 -16 40 -35 40 -41 0 -7 7 -13 15 -13
8 0 15 -5 15 -11 0 -5 5 -7 12 -3 7 4 8 3 4 -4 -4 -6 2 -17 14 -24 11 -7 20
-17 20 -22 0 -5 8 -16 18 -25 9 -9 24 -29 32 -46 8 -16 17 -32 20 -35 13 -13
27 -70 19 -76 -5 -3 -9 -11 -8 -17 2 -23 -13 -57 -24 -50 -5 3 -7 1 -4 -4 4
-6 -2 -21 -13 -33 -24 -28 -24 -27 -5 -27 8 0 17 7 19 14 3 8 11 11 16 8 6 -4
9 -3 8 2 -2 5 7 19 19 32 12 13 20 28 17 33 -3 4 0 8 6 8 6 0 9 4 5 9 -3 5 0
13 6 16 5 4 8 13 5 21 -3 8 0 14 7 14 8 0 8 3 -2 9 -8 5 -9 11 -3 15 6 4 6 22
0 53 -6 27 -10 54 -11 61 0 6 -4 12 -9 12 -5 0 -7 4 -3 9 3 5 1 12 -5 16 -6 4
-8 10 -5 15 3 5 -3 13 -12 19 -11 6 -13 11 -5 11 7 0 10 5 7 10 -4 6 -11 7
-17 4 -6 -4 -8 -3 -5 3 3 5 0 21 -8 36 -8 15 -11 27 -7 27 4 0 1 4 -7 9 -12 8
-12 12 -2 25 8 9 10 16 7 16 -4 0 9 16 28 36 20 20 33 41 30 45 -3 5 0 9 6 9
6 0 8 5 5 10 -3 6 -3 10 1 10 15 0 94 -44 94 -52 0 -5 4 -7 9 -3 6 3 20 -17
33 -44 12 -27 25 -48 28 -46 4 2 7 -16 7 -40 0 -25 -3 -45 -9 -45 -5 0 -6 -5
-3 -11 4 -5 0 -18 -9 -28 -16 -17 -16 -19 -1 -25 12 -4 19 0 22 14 3 11 9 20
13 20 8 0 23 38 21 53 -1 4 3 7 7 7 13 0 4 132 -11 146 -4 4 -7 16 -7 26 0 10
-4 18 -10 18 -5 0 -10 7 -10 15 0 9 -7 18 -15 21 -8 4 -13 10 -10 14 3 4 -2
11 -11 14 -9 3 -12 11 -8 18 4 7 4 10 0 6 -5 -4 -19 4 -33 18 -13 13 -28 22
-32 20 -11 -7 -10 27 2 42 5 6 5 12 0 12 -5 0 -9 9 -10 20 -1 11 3 20 8 20 6
0 6 6 0 18 -6 11 -6 24 0 34 5 9 6 19 1 22 -4 2 -7 32 -5 66 1 41 -1 59 -8 54
-8 -4 -8 -1 0 13 6 11 8 23 5 26 -3 3 -7 16 -9 29 -2 12 -8 37 -13 55 -6 17
-7 35 -4 39 4 4 2 4 -4 1 -10 -6 -29 44 -25 66 0 4 -5 7 -12 7 -7 0 -13 9 -14
20 -1 11 -8 26 -15 34 -7 8 -24 28 -38 46 -39 51 -125 127 -152 136 -10 3 -18
10 -18 15 0 6 -4 7 -10 4 -5 -3 -10 -1 -10 4 0 6 -9 11 -21 11 -11 0 -17 5
-14 10 5 9 -23 15 -47 11 -5 0 -8 3 -8 7 0 5 -6 9 -12 9 -7 0 -29 4 -48 8 -19
4 -42 7 -50 7 -8 1 -21 5 -27 11 -7 5 -13 6 -13 1z"/>
</g>
</svg>
